<?xml version="1.0" standalone="no"?>
<!DOCTYPE svg PUBLIC "-//W3C//DTD SVG 20010904//EN"
 "http://www.w3.org/TR/2001/REC-SVG-20010904/DTD/svg10.dtd">
<svg version="1.0" xmlns="http://www.w3.org/2000/svg"
 width="619.000000pt" height="619.000000pt" viewBox="0 0 619.000000 619.000000"
 preserveAspectRatio="xMidYMid meet">
<metadata>
Created by potrace 1.16, written by Peter Selinger 2001-2019
</metadata>
<g transform="translate(0.000000,619.000000) scale(0.100000,-0.100000)"
fill="#000000" stroke="none">
<path d="M583 4666 c4 -10 9 -28 12 -39 8 -36 105 -457 120 -522 8 -33 26
-109 40 -170 14 -60 37 -157 50 -215 14 -58 36 -154 51 -215 29 -127 59 -255
79 -340 8 -33 37 -159 65 -280 74 -320 77 -330 89 -327 16 3 1091 853 1091
862 0 5 -1446 1147 -1564 1235 -30 23 -38 25 -33 11z"/>
<path d="M4819 4055 c-436 -344 -795 -628 -797 -633 -3 -9 1069 -860 1089
-864 12 -3 15 7 89 327 28 121 57 247 65 280 20 85 50 213 79 340 15 61 37
157 51 215 13 58 36 155 50 215 14 61 32 137 40 170 8 33 37 159 65 280 27
121 54 236 60 254 5 19 8 36 7 38 -2 1 -361 -279 -798 -622z"/>
<path d="M2244 3239 c-176 -138 -323 -255 -328 -260 -8 -7 1171 -1749 1184
-1749 13 0 1192 1742 1184 1749 -5 5 -152 122 -328 260 l-318 251 -538 0 -538
0 -318 -251z"/>
<path d="M1150 2373 c-338 -267 -626 -494 -639 -504 -13 -11 -22 -21 -20 -23
2 -2 83 -25 179 -50 96 -25 209 -54 250 -65 41 -11 127 -33 190 -50 63 -16
158 -41 210 -54 52 -14 176 -46 275 -72 99 -26 212 -55 250 -65 181 -48 310
-81 415 -109 63 -16 178 -46 255 -66 248 -65 360 -94 362 -91 2 2 -1099 1621
-1111 1633 -1 1 -278 -217 -616 -484z"/>
<path d="M3877 2043 c-306 -449 -556 -818 -554 -819 2 -3 115 26 362 91 77 20
192 50 255 66 105 28 234 61 415 109 39 10 151 39 250 65 99 26 223 58 275 72
52 13 147 38 210 54 63 17 149 39 190 50 41 11 154 40 250 65 170 44 188 50
179 57 -5 5 -1251 988 -1264 998 -6 5 -226 -308 -568 -808z"/>
</g>
</svg>
